<?xml version="1.0" encoding="UTF-8" standalone="no"?>
<svg width="16px" height="16px" viewBox="0 0 16 16" version="1.1" xmlns="http://www.w3.org/2000/svg" xmlns:xlink="http://www.w3.org/1999/xlink">
    <!-- Generator: Sketch 3.8.2 (29753) - http://www.bohemiancoding.com/sketch -->
    <title>Shape</title>
    <desc>Created with Sketch.</desc>
    <defs></defs>
    <g id="Page-1" stroke="none" stroke-width="1" fill="none" fill-rule="evenodd">
        <g id="home_03-recuperar-contrasena" transform="translate(-534.000000, -482.000000)" fill="#314574">
            <g id="Group-3" transform="translate(530.000000, 289.000000)">
                <path d="M11.9996614,193 C7.58196825,193 4,196.581968 4,200.999661 C4,205.417354 7.58196825,209 11.9996614,209 C16.4173545,209 20,205.417354 20,200.999661 C20,196.581968 16.4173545,193 11.9996614,193 L11.9996614,193 Z M13.6650159,205.398392 C13.2532487,205.560931 12.9254603,205.68419 12.679619,205.769524 C12.434455,205.854857 12.1493333,205.897524 11.8249312,205.897524 C11.3264762,205.897524 10.9384127,205.775619 10.6620952,205.532487 C10.3857778,205.289354 10.2482963,204.981206 10.2482963,204.606688 C10.2482963,204.461079 10.258455,204.312085 10.2787725,204.160381 C10.2997672,204.008677 10.3329524,203.838011 10.378328,203.646349 L10.8937143,201.825905 C10.9390899,201.651175 10.9783704,201.485249 11.0095238,201.330836 C11.0406772,201.175069 11.0555767,201.032169 11.0555767,200.902138 C11.0555767,200.670519 11.0074921,200.507979 10.912,200.41655 C10.8151534,200.325122 10.6329735,200.280423 10.3613968,200.280423 C10.2286561,200.280423 10.0918519,200.300063 9.95166138,200.341376 C9.8128254,200.384042 9.69227513,200.422646 9.59339683,200.460571 L9.72952381,199.89981 C10.0667937,199.762328 10.3898413,199.644487 10.6979894,199.546963 C11.0061376,199.448085 11.2973545,199.399323 11.5716402,199.399323 C12.066709,199.399323 12.4486772,199.519873 12.717545,199.758265 C12.9850582,199.997333 13.1198307,200.30819 13.1198307,200.690159 C13.1198307,200.769397 13.1103492,200.90891 13.0920635,201.108021 C13.0737778,201.30781 13.0392381,201.489989 12.9891217,201.65727 L12.4764444,203.472296 C12.434455,203.617905 12.3972063,203.784508 12.3633439,203.970751 C12.3301587,204.156995 12.3139048,204.299217 12.3139048,204.394709 C12.3139048,204.63581 12.3674074,204.800381 12.4757672,204.887746 C12.5827725,204.975111 12.7703704,205.019132 13.0358519,205.019132 C13.1611429,205.019132 13.3013333,204.996783 13.4598095,204.953439 C13.6169312,204.910095 13.730709,204.871492 13.8024974,204.838307 L13.6650159,205.398392 L13.6650159,205.398392 Z M13.5742646,198.03128 C13.3351958,198.253418 13.0473651,198.364487 12.7107725,198.364487 C12.3748571,198.364487 12.0849947,198.253418 11.8438942,198.03128 C11.6041481,197.809143 11.4829206,197.538921 11.4829206,197.223323 C11.4829206,196.908402 11.6048254,196.637503 11.8438942,196.413333 C12.0849947,196.188487 12.3748571,196.076741 12.7107725,196.076741 C13.0473651,196.076741 13.335873,196.188487 13.5742646,196.413333 C13.8133333,196.637503 13.9332063,196.908402 13.9332063,197.223323 C13.9332063,197.539598 13.8133333,197.809143 13.5742646,198.03128 L13.5742646,198.03128 Z" id="Shape"></path>
            </g>
        </g>
    </g>
</svg>