<?xml version="1.0" encoding="UTF-8" standalone="no"?>
<svg width="16px" height="16px" viewBox="0 0 16 16" version="1.1" xmlns="http://www.w3.org/2000/svg" xmlns:xlink="http://www.w3.org/1999/xlink">
    <!-- Generator: Sketch 3.8.2 (29753) - http://www.bohemiancoding.com/sketch -->
    <title>Shape</title>
    <desc>Created with Sketch.</desc>
    <defs></defs>
    <g id="Page-1" stroke="none" stroke-width="1" fill="none" fill-rule="evenodd">
        <g id="home_02-acceso-clientes-error" transform="translate(-979.000000, -314.000000)" fill="#DD2339">
            <path d="M981.507835,316.182503 C978.29548,319.215176 978.149917,324.277671 981.18259,327.489996 C981.235856,327.546616 981.290093,327.602294 981.345124,327.657178 C984.468829,330.781059 989.53353,330.781059 992.657089,327.657178 C995.78097,324.533619 995.78097,319.468918 992.657089,316.345213 C989.597238,313.282598 984.656011,313.210449 981.507835,316.182503 L981.507835,316.182503 Z M983.042172,319.625688 L984.625775,318.042084 L987.001283,320.417592 L989.376791,318.042084 L990.96057,319.625688 L988.585063,322.001989 L990.960718,324.376674 L989.376938,325.960454 L987.00143,323.584799 L984.625922,325.960454 L983.042319,324.376674 L985.41765,322.001989 L983.042172,319.625688 L983.042172,319.625688 Z" id="Shape"></path>
        </g>
    </g>
</svg>