<?xml version="1.0" encoding="UTF-8" standalone="no"?>
<svg width="16px" height="16px" viewBox="0 0 16 16" version="1.1" xmlns="http://www.w3.org/2000/svg" xmlns:xlink="http://www.w3.org/1999/xlink">
    <!-- Generator: Sketch 3.8.2 (29753) - http://www.bohemiancoding.com/sketch -->
    <title>Shape</title>
    <desc>Created with Sketch.</desc>
    <defs></defs>
    <g id="Page-1" stroke="none" stroke-width="1" fill="none" fill-rule="evenodd">
        <g id="home_05-ingresar-clave" transform="translate(-531.000000, -491.000000)" fill="#314574">
            <g id="Group-4" transform="translate(528.000000, 304.000000)">
                <path d="M16.6569079,189.343195 C15.1458793,187.832218 13.1369326,187 11,187 C8.86311895,187 6.85417231,187.832218 5.3431437,189.343195 C3.83216666,190.854172 3,192.863171 3,195.000103 C3,197.136933 3.83216666,199.145931 5.3431437,200.656908 C6.85417231,202.167936 8.86311895,203.000052 11,203.000052 C13.1368811,203.000052 15.1458277,202.167885 16.6568563,200.656908 C18.1678849,199.145931 19,197.136933 19,195.000103 C19.0000516,192.863171 18.1678849,190.854172 16.6569079,189.343195 L16.6569079,189.343195 Z M10.1581839,190.517393 C10.2653824,190.406441 10.4100713,190.34433 10.5656633,190.34433 L11.8186211,190.34433 C11.974213,190.34433 12.118902,190.407022 12.225877,190.518064 C12.3328968,190.629105 12.3886632,190.777413 12.3828989,190.932916 L12.1758302,195.620113 C12.1640781,195.937463 11.8961043,196.19802 11.5784857,196.19802 L10.7908293,196.19802 C10.473032,196.19802 10.205505,195.937106 10.1945126,195.619577 L10.0003577,190.931084 C9.99495089,190.775581 10.0509854,190.628435 10.1581839,190.517393 L10.1581839,190.517393 Z M11.1988426,199.505296 C10.5065741,199.505296 9.98454263,198.99228 9.98454263,198.311986 C9.98454263,197.624064 10.5004456,197.105296 11.1845427,197.105296 C11.891111,197.105296 12.3845427,197.601496 12.3845427,198.311986 C12.3845853,199.014607 11.8969842,199.505296 11.1988426,199.505296 L11.1988426,199.505296 Z" id="Shape"></path>
            </g>
        </g>
    </g>
</svg>