<?xml version="1.0" encoding="UTF-8" standalone="no"?>
<svg width="10px" height="10px" viewBox="0 0 10 10" version="1.1" xmlns="http://www.w3.org/2000/svg" xmlns:xlink="http://www.w3.org/1999/xlink">
    <!-- Generator: Sketch 41.1 (35376) - http://www.bohemiancoding.com/sketch -->
    <title>Shape</title>
    <desc>Created with Sketch.</desc>
    <defs></defs>
    <g id="Page-1" stroke="none" stroke-width="1" fill="none" fill-rule="evenodd">
        <g id="LU_escritorio-pop" transform="translate(-1212.000000, -115.000000)" fill="#BCBCBC">
            <path d="M1218.43836,120.159817 C1218.34703,120.068493 1218.34703,119.931507 1218.43836,119.840183 L1221.86301,116.415525 C1221.95434,116.324201 1222,116.187215 1222,116.09589 C1222,116.004566 1221.95434,115.86758 1221.86301,115.776256 L1221.22374,115.136986 C1221.13242,115.045662 1220.99543,115 1220.90411,115 C1220.76712,115 1220.6758,115.045662 1220.58447,115.136986 L1217.15982,118.561644 C1217.06849,118.652968 1216.93151,118.652968 1216.84018,118.561644 L1213.41553,115.136986 C1213.3242,115.045662 1213.18721,115 1213.09589,115 C1213.00457,115 1212.86758,115.045662 1212.77626,115.136986 L1212.13699,115.776256 C1212.04566,115.86758 1212,116.004566 1212,116.09589 C1212,116.187215 1212.04566,116.324201 1212.13699,116.415525 L1215.56164,119.840183 C1215.65297,119.931507 1215.65297,120.068493 1215.56164,120.159817 L1212.13699,123.584475 C1212.04566,123.675799 1212,123.812785 1212,123.90411 C1212,123.995434 1212.04566,124.13242 1212.13699,124.223744 L1212.77626,124.863014 C1212.86758,124.954338 1213.00457,125 1213.09589,125 C1213.18721,125 1213.3242,124.954338 1213.41553,124.863014 L1216.84018,121.438356 C1216.93151,121.347032 1217.06849,121.347032 1217.15982,121.438356 L1220.58447,124.863014 C1220.6758,124.954338 1220.81279,125 1220.90411,125 C1220.99543,125 1221.13242,124.954338 1221.22374,124.863014 L1221.86301,124.223744 C1221.95434,124.13242 1222,123.995434 1222,123.90411 C1222,123.812785 1221.95434,123.675799 1221.86301,123.584475 L1218.43836,120.159817 Z" id="Shape"></path>
        </g>
    </g>
</svg>